solid OpenSCAD_Model
  facet normal -1 -0 -0
    outer loop
      vertex 0 0 0
      vertex 0 0 30
      vertex 0 5 0
    endloop
  endfacet
  facet normal -1 0 0
    outer loop
      vertex 0 5 0
      vertex 0 0 30
      vertex 0 5 30
    endloop
  endfacet
  facet normal 0 -1 0
    outer loop
      vertex 0 0 30
      vertex 0 0 0
      vertex 60 0 0
    endloop
  endfacet
  facet normal 0 -1 0
    outer loop
      vertex 60 0 30
      vertex 0 0 30
      vertex 60 0 0
    endloop
  endfacet
  facet normal -0 -0 -1
    outer loop
      vertex 0 0 0
      vertex 0 5 0
      vertex 60 0 0
    endloop
  endfacet
  facet normal 0 0 -1
    outer loop
      vertex 60 0 0
      vertex 0 5 0
      vertex 20 5 0
    endloop
  endfacet
  facet normal 0 0 -1
    outer loop
      vertex 25 5 0
      vertex 20 5 0
      vertex 20 30 0
    endloop
  endfacet
  facet normal 0 0 -1
    outer loop
      vertex 60 0 0
      vertex 20 5 0
      vertex 25 5 0
    endloop
  endfacet
  facet normal 0 0 -1
    outer loop
      vertex 60 5 0
      vertex 60 0 0
      vertex 40 5 0
    endloop
  endfacet
  facet normal 0 0 -1
    outer loop
      vertex 60 0 0
      vertex 25 5 0
      vertex 35 5 0
    endloop
  endfacet
  facet normal 0 0 -1
    outer loop
      vertex 35 30 0
      vertex 40 5 0
      vertex 35 5 0
    endloop
  endfacet
  facet normal 0 0 -1
    outer loop
      vertex 40 5 0
      vertex 35 30 0
      vertex 40 30 0
    endloop
  endfacet
  facet normal 0 0 -1
    outer loop
      vertex 60 0 0
      vertex 35 5 0
      vertex 40 5 0
    endloop
  endfacet
  facet normal 0 0 -1
    outer loop
      vertex 25 5 0
      vertex 20 30 0
      vertex 25 30 0
    endloop
  endfacet
  facet normal 0 1 0
    outer loop
      vertex 0 5 0
      vertex 0 5 30
      vertex 20 5 0
    endloop
  endfacet
  facet normal 0 1 0
    outer loop
      vertex 20 5 0
      vertex 0 5 30
      vertex 20 5 30
    endloop
  endfacet
  facet normal 0 -0 1
    outer loop
      vertex 0 5 30
      vertex 0 0 30
      vertex 60 0 30
    endloop
  endfacet
  facet normal 0 -0 1
    outer loop
      vertex 35 5 30
      vertex 25 5 30
      vertex 60 0 30
    endloop
  endfacet
  facet normal 0 -0 1
    outer loop
      vertex 40 5 30
      vertex 35 5 30
      vertex 60 0 30
    endloop
  endfacet
  facet normal 0 0 1
    outer loop
      vertex 60 5 30
      vertex 40 5 30
      vertex 60 0 30
    endloop
  endfacet
  facet normal 0 0 1
    outer loop
      vertex 40 30 30
      vertex 35 5 30
      vertex 40 5 30
    endloop
  endfacet
  facet normal 0 -0 1
    outer loop
      vertex 25 5 30
      vertex 20 5 30
      vertex 60 0 30
    endloop
  endfacet
  facet normal 0 -0 1
    outer loop
      vertex 20 5 30
      vertex 0 5 30
      vertex 60 0 30
    endloop
  endfacet
  facet normal -0 0 1
    outer loop
      vertex 25 5 30
      vertex 25 30 30
      vertex 20 5 30
    endloop
  endfacet
  facet normal 0 -0 1
    outer loop
      vertex 20 30 30
      vertex 20 5 30
      vertex 25 30 30
    endloop
  endfacet
  facet normal 0 -0 1
    outer loop
      vertex 35 30 30
      vertex 35 5 30
      vertex 40 30 30
    endloop
  endfacet
  facet normal 1 0 -0
    outer loop
      vertex 60 0 30
      vertex 60 0 0
      vertex 60 5 0
    endloop
  endfacet
  facet normal 1 0 0
    outer loop
      vertex 60 5 30
      vertex 60 0 30
      vertex 60 5 0
    endloop
  endfacet
  facet normal 0 1 0
    outer loop
      vertex 40 5 0
      vertex 40 5 30
      vertex 60 5 0
    endloop
  endfacet
  facet normal 0 1 0
    outer loop
      vertex 60 5 0
      vertex 40 5 30
      vertex 60 5 30
    endloop
  endfacet
  facet normal 1 0 -0
    outer loop
      vertex 40 5 30
      vertex 40 5 0
      vertex 40 30 0
    endloop
  endfacet
  facet normal 1 0 0
    outer loop
      vertex 40 30 30
      vertex 40 5 30
      vertex 40 30 0
    endloop
  endfacet
  facet normal 0 1 0
    outer loop
      vertex 35 30 0
      vertex 35 30 30
      vertex 40 30 0
    endloop
  endfacet
  facet normal 0 1 0
    outer loop
      vertex 40 30 0
      vertex 35 30 30
      vertex 40 30 30
    endloop
  endfacet
  facet normal -1 -0 -0
    outer loop
      vertex 35 5 0
      vertex 35 5 30
      vertex 35 30 0
    endloop
  endfacet
  facet normal -1 0 0
    outer loop
      vertex 35 30 0
      vertex 35 5 30
      vertex 35 30 30
    endloop
  endfacet
  facet normal 0 1 0
    outer loop
      vertex 25 5 0
      vertex 25 5 30
      vertex 35 5 0
    endloop
  endfacet
  facet normal 0 1 0
    outer loop
      vertex 35 5 0
      vertex 25 5 30
      vertex 35 5 30
    endloop
  endfacet
  facet normal 1 0 -0
    outer loop
      vertex 25 5 30
      vertex 25 5 0
      vertex 25 30 0
    endloop
  endfacet
  facet normal 1 0 0
    outer loop
      vertex 25 30 30
      vertex 25 5 30
      vertex 25 30 0
    endloop
  endfacet
  facet normal 0 1 0
    outer loop
      vertex 20 30 0
      vertex 20 30 30
      vertex 25 30 0
    endloop
  endfacet
  facet normal 0 1 0
    outer loop
      vertex 25 30 0
      vertex 20 30 30
      vertex 25 30 30
    endloop
  endfacet
  facet normal -1 -0 -0
    outer loop
      vertex 20 5 0
      vertex 20 5 30
      vertex 20 30 0
    endloop
  endfacet
  facet normal -1 0 0
    outer loop
      vertex 20 30 0
      vertex 20 5 30
      vertex 20 30 30
    endloop
  endfacet
endsolid OpenSCAD_Model
